Coordinates
version=1
nRows=17
nColumns=33
inDegrees=yes

Units are S.I. units (second, meters, Newtons, ...)
Angles are in degrees.

endheader
time	ground_thorax_rot_x	ground_thorax_rot_y	ground_thorax_rot_z	ground_thorax_tx	ground_thorax_ty	ground_thorax_tz	clav_prot_r	clav_elev_r	scapula_abduction_r	scapula_elevation_r	scapula_upward_rot_r	scapula_winging_r	shoulder_elv_r	plane_of_elev_r	axial_rot_r	elbow_flexion_r	pro_sup_r	wrist_flex_r	wrist_dev_r	clav_prot_l	clav_elev_l	scapula_abduction_l	scapula_elevation_l	scapula_upward_rot_l	scapula_winging_l	shoulder_elv_l	plane_of_elev_l	axial_rot_l	elbow_flexion_l	pro_sup_l	wrist_flex_l	wrist_dev_l
      9.59000000	     33.57747901	     10.28488431	     17.22929048	    -74.03157898	    769.51295306	      9.94785229	     11.35528487	     33.79162245	     45.00000000	     31.85323484	     -9.75695906	  -2611.06982644	  -1382.23338242	     28.69011098	     63.33760768	   1809.27497399	    388.38807976	     17.43988118	     10.45135755	     -2.09367493	    -45.00000000	    -45.00000000	     45.00000000	      5.06348998	   2260.78235575	  -4604.22531635	     13.75404245	    179.99999979	   1084.14469296	   -137.18494695	      5.68016591	    -13.33534582
      9.60000000	     33.68565764	     10.19408427	     17.14525537	    -74.54452878	    769.52636180	      9.70352669	     11.11108211	     33.95904355	     45.00000000	     31.91888015	     -9.76254588	  -2611.12319168	  -1382.35602134	     28.83355378	     63.06764096	   1809.12892169	    388.26728692	     17.44064684	     10.49183717	     -2.45315997	    -45.00000000	    -45.00000000	     45.00000000	      5.83982052	   2261.29666150	  -4604.38387156	     13.90256740	    179.99999979	   1084.29596360	   -136.64416285	      5.77886101	    -13.28417472
      9.61000000	     33.73971278	     10.21174533	     17.23633066	    -75.07327445	    769.55707526	      9.52181244	     11.32931318	     33.90978247	     45.00000000	     31.92937579	     -9.87578502	  -2610.95998201	  -1382.16966476	     28.75508842	     62.96042956	   1809.19030119	    388.14739092	     17.43386060	     10.41494097	     -2.61824691	    -45.00000000	    -45.00000000	     45.00000000	      6.30025834	   2261.39407964	  -4604.26204718	     13.62936464	    179.99999979	   1084.25487123	   -136.15298359	      5.66964748	    -13.33517059
      9.62000000	     33.86739193	     10.24139847	     17.13841823	    -75.61612328	    769.60245324	      9.39742329	     11.25888608	     34.05395992	     45.00000000	     32.09609167	     -9.94272199	  -2611.21310043	  -1382.32798671	     28.95965381	     62.71196191	   1809.16860307	    388.03741644	     17.46037782	     10.42694803	     -2.64901841	    -45.00000000	    -45.00000000	     45.00000000	      6.56332683	   2261.79330065	  -4604.52925660	     13.86699837	    179.99999979	   1084.20186606	   -135.71577865	      5.81408067	    -13.39881314
      9.63000000	     33.81136097	     10.27022017	     17.33640185	    -76.18782236	    769.65863269	      9.30449505	     11.32915121	     34.14866968	     45.00000000	     32.13298665	    -10.15240380	  -2610.75868680	  -1382.04270021	     28.61484995	     62.71698416	   1809.33716575	    387.97195642	     17.51867096	     10.42405126	     -2.85251528	    -45.00000000	    -45.00000000	     45.00000000	      6.82249417	   2261.65185621	  -4604.10487599	     13.49648162	    179.99999979	   1084.20742309	   -135.33920854	      5.62780621	    -13.38038373
      9.64000000	     33.91694503	     10.17732503	     17.21447294	    -76.79699612	    769.72316763	      9.22344402	     11.40614306	     34.19393233	     45.00000000	     32.23352326	    -10.23394527	  -2611.07107064	  -1382.36724349	     29.08417755	     62.47190745	   1809.08187600	    387.91862218	     17.46137889	     10.43058500	     -2.75871166	    -45.00000000	    -45.00000000	     45.00000000	      6.99199680	   2262.13207661	  -4604.31127192	     13.97309000	    179.99999979	   1084.38241834	   -134.91909394	      5.86751669	    -13.43769295
      9.65000000	     34.01073679	     10.33187334	     17.41909689	    -77.45305584	    769.79401550	      9.13893765	     11.40967267	     34.35676627	     45.00000000	     32.36610480	    -10.35511823	  -2610.81654710	  -1382.05869018	     28.77177620	     62.39067953	   1809.29597055	    387.86955915	     17.53013021	     10.38024051	     -2.97130755	    -45.00000000	    -45.00000000	     45.00000000	      7.23461573	   2262.09199824	  -4604.13147784	     13.46540960	    179.99999979	   1084.27281189	   -134.60549492	      5.71369713	    -13.46623631
      9.66000000	     34.10171173	     10.29911946	     17.20528851	    -78.16683362	    769.87337370	      9.05302153	     11.52512333	     34.40051293	     45.00000000	     32.47577440	    -10.45642414	  -2611.09280535	  -1382.24745765	     29.14340585	     62.20241828	   1809.14779500	    387.85307826	     17.50342902	     10.38462341	     -2.89509213	    -45.00000000	    -45.00000000	     45.00000000	      7.47232636	   2262.48766551	  -4604.37948640	     13.88548248	    179.99999979	   1084.32104499	   -134.29534754	      5.91082773	    -13.56404254
      9.67000000	     34.21447005	     10.48317914	     17.45160844	    -78.94184002	    769.96280875	      8.96933305	     11.46624662	     34.63247814	     45.00000000	     32.66280894	    -10.59229693	  -2610.84270339	  -1381.90488574	     28.80256698	     62.11549305	   1809.36624548	    387.83396586	     17.58405326	     10.33926825	     -3.13021240	    -45.00000000	    -45.00000000	     45.00000000	      7.80843773	   2262.51745442	  -4604.19946478	     13.36476401	    179.99999979	   1084.25607485	   -134.06871607	      5.77734489	    -13.57203269
      9.68000000	     34.16979490	     10.42505459	     17.42938274	    -79.78488759	    770.06465416	      8.88944137	     11.61922410	     34.62176370	     45.00000000	     32.73091230	    -10.84455807	  -2610.90663679	  -1382.05705177	     29.01814681	     61.93416192	   1809.37084054	    387.83255977	     17.59595651	     10.35114644	     -3.11796907	    -45.00000000	    -45.00000000	     45.00000000	      8.01052000	   2262.87284226	  -4604.13416872	     13.67070785	    179.99999979	   1084.30849663	   -133.80759123	      5.87945864	    -13.60175428
      9.69000000	     34.36757844	     10.42796867	     17.32372022	    -80.69718304	    770.18171329	      8.81299822	     11.65137981	     34.92816370	     45.00000000	     33.01265744	    -10.90522288	  -2610.98766422	  -1382.08621466	     29.15305761	     61.75852746	   1809.41803369	    387.82121398	     17.59116978	     10.26440872	     -3.20467065	    -45.00000000	    -45.00000000	     45.00000000	      8.41205659	   2263.11203589	  -4604.24442799	     13.60442849	    179.99999979	   1084.33878167	   -133.63189636	      5.95098230	    -13.71876844
      9.70000000	     34.51006453	     10.58810455	     17.34168803	    -81.67610409	    770.31686515	      8.73644031	     11.72326808	     34.99835828	     45.00000000	     33.18368275	    -11.02167470	  -2611.05310531	  -1381.85317046	     29.08222448	     61.61184850	   1809.62138525	    387.80554402	     17.68152364	     10.26802239	     -3.34883138	    -45.00000000	    -45.00000000	     45.00000000	      8.81708806	   2263.40659589	  -4604.36672861	     13.49843922	    179.99999979	   1084.28137925	   -133.51506443	      5.98446581	    -13.75226432
      9.71000000	     34.56376257	     10.47928437	     17.32336049	    -82.71584996	    770.47397618	      8.65379298	     11.78260500	     35.22374147	     45.00000000	     33.37560913	    -11.23405045	  -2611.04291515	  -1382.03723660	     29.27766836	     61.42961517	   1809.61626302	    387.79522873	     17.64037991	     10.16659247	     -3.42820048	    -45.00000000	    -45.00000000	     45.00000000	      9.19975166	   2263.71940701	  -4604.21425364	     13.57718478	    179.99999979	   1084.37544920	   -133.42088327	      6.04627706	    -13.82277579
      9.72000000	     34.64878300	     10.60283649	     17.45481607	    -83.80177302	    770.65505950	      8.55927623	     11.86040720	     35.36526106	     45.00000000	     33.55597827	    -11.40963606	  -2610.93053144	  -1381.82329440	     29.15399956	     61.24109121	   1809.76099097	    387.78222586	     17.75145734	     10.22833838	     -3.56965557	    -45.00000000	    -45.00000000	     45.00000000	      9.57514031	   2264.01090726	  -4604.14315250	     13.45761276	    179.99999979	   1084.44690909	   -133.36945844	      6.08781969	    -13.81443793
      9.73000000	     34.77963107	     10.58638105	     17.32142950	    -84.92136639	    770.86230079	      8.44995301	     11.95285947	     35.51321501	     45.00000000	     33.77951279	    -11.61571668	  -2611.11435625	  -1381.93731039	     29.44658267	     60.97905999	   1809.77710986	    387.75693404	     17.69706281	     10.07652037	     -3.62988140	    -45.00000000	    -45.00000000	     45.00000000	      9.97877280	   2264.32375382	  -4604.20668821	     13.53219988	    179.99999979	   1084.48825623	   -133.36862179	      6.18795956	    -13.93351101
      9.74000000	     34.80682361	     10.74529327	     17.47908040	    -86.06537892	    771.09662828	      8.32816394	     11.95234902	     35.61598256	     45.00000000	     33.83628935	    -11.73266534	  -2610.93048828	  -1381.63929439	     29.16181881	     60.77744327	   1809.95260187	    387.76060596	     17.87267621	     10.20431192	     -3.78454262	    -45.00000000	    -45.00000000	     45.00000000	     10.38532943	   2264.63043895	  -4604.03599748	     13.36847062	    179.99999979	   1084.55331691	   -133.43016760	      6.22354460	    -13.92177250
      9.75000000	     34.77809838	     10.65138899	     17.40073727	    -87.22297272	    771.35981733	      8.20552374	     11.90190923	     35.02797331	     45.00000000	     33.93694685	    -11.83509397	  -2611.06970134	  -1381.73988812	     29.43132060	     60.66805002	   1809.94620117	    387.79830736	     17.82054315	     10.12080908	     -3.79353945	    -45.00000000	    -45.00000000	     45.00000000	     10.64338458	   2264.73227088	  -4603.81542510	     13.48403791	    179.99999979	   1084.63385333	   -133.56307756	      6.30352090	    -13.99039231
